<svg width="29" height="35" viewBox="0 0 29 35" fill="none" xmlns="http://www.w3.org/2000/svg">
<path fill-rule="evenodd" clip-rule="evenodd" d="M18.3513 3.27794C18.1625 3.48024 17.4746 4.50523 17.4746 5.78647C17.4746 6.09666 17.4746 13.4199 17.4746 13.6762C17.4612 14.2291 17.124 15.0248 16.8408 15.3081C16.6385 15.5104 15.4247 16.6163 15.3168 16.7242L16.0046 16.7376C16.2339 16.5219 18.5671 14.4449 18.8098 14.1752C19.1335 13.811 19.8888 12.8939 19.8888 11.4509C19.8888 11.1137 19.8888 4.16806 19.8888 3.87135C19.8888 2.73847 20.4147 2.1046 20.698 1.79441C20.9812 1.48422 21.8983 0.715477 22.0601 0.54015L21.3318 0.513171C21.17 0.701984 18.5806 3.03518 18.3513 3.27794Z" fill="#E03A3E"/>
<path fill-rule="evenodd" clip-rule="evenodd" d="M12.5516 31.9915L15.4108 34.5H17.3259C19.2815 34.5 21.0617 33.6638 22.2351 32.4905C23.4084 31.3171 23.84 29.7257 23.84 28.2557C23.84 27.1767 23.84 24.3445 23.84 24.1557C23.84 22.7801 22.9768 21.9709 22.7341 21.7281C22.5992 21.5932 21.763 20.811 21.763 20.811V23.9534C21.763 23.9534 22.6801 24.8975 22.8689 25.0998C23.7186 26.0034 23.7051 27.6488 21.0212 30.2652C20.5492 30.7237 19.2005 31.9915 17.3529 31.9915C17.1101 31.9915 12.5516 31.9915 12.5516 31.9915Z" fill="#E03A3E"/>
<path fill-rule="evenodd" clip-rule="evenodd" d="M20.5222 15.1463C20.1985 15.4835 19.9018 16.3062 19.9018 17.0345C19.9018 17.4391 19.9018 18.5855 19.9018 18.5855C19.9018 18.5855 21.1695 18.5855 21.4797 18.5855C22.0866 18.5855 22.8958 18.0325 23.0712 17.7358C23.0847 17.7088 23.0712 16.1983 23.0712 16.1983C23.0712 16.1983 23.4758 16.7782 23.9073 17.0884C24.0692 16.8861 25.5123 15.1464 26.7126 15.1329C28.7221 15.1194 28.2635 17.6414 27.4409 18.4506C27.1711 18.7068 25.9978 19.7993 25.6202 20.1499C24.6761 21.0535 23.0577 20.6219 23.0577 18.2887C23.0577 18.2887 21.3179 19.9341 21.0617 20.1634C20.8054 20.3792 19.9018 21.3367 19.9018 21.3367C19.9018 21.3367 19.9018 25.0321 19.9018 25.4367C19.9018 27.4057 19.2544 28.0531 18.715 28.6465C18.5127 28.8758 16.3009 30.8988 16.0042 31.1146L15.2759 31.1281C15.2759 31.1281 16.5706 29.9547 16.8268 29.685C17.1235 29.3748 17.4607 28.7544 17.4607 27.7159C17.4607 27.4597 17.4337 21.2828 17.4337 21.2828C17.4337 21.2828 7.81774 21.2828 7.37268 21.2828C3.87963 21.2828 3.12437 17.3986 3.11089 16.3602C3.11089 16.05 3.11089 12.948 3.11089 12.476C3.11089 11.8421 2.70629 10.7632 2.04544 10.426H3.02997C3.13786 10.48 3.75825 10.7227 3.75825 13.1099C3.75825 13.1099 3.71779 15.8746 3.71779 16.023C3.71779 17.2233 4.67534 18.6124 6.06447 18.6124C6.34769 18.6124 17.4472 18.5989 17.4472 18.5989C17.4607 18.2888 17.7574 17.1289 18.3104 16.522C18.6206 16.1713 21.0617 13.946 21.3449 13.7303L22.0732 13.7168C21.9653 13.8112 20.7919 14.8631 20.5222 15.1463ZM24.258 17.4795C24.258 17.4795 24.9188 18.3562 25.229 18.5989C26.4563 19.5835 27.0363 18.5315 26.2136 17.3986C25.8899 16.9536 24.6356 17.0884 24.258 17.4795Z" fill="#E03A3E"/>
<path fill-rule="evenodd" clip-rule="evenodd" d="M12.0524 24.8165C12.0524 25.3695 10.2992 26.8261 10.1913 26.934C10.0699 26.3405 9.62482 25.6932 8.31661 24.385L10.2317 22.4699C11.5264 23.7376 12.0524 24.0073 12.0524 24.8165Z" fill="#E03A3E"/>
<path fill-rule="evenodd" clip-rule="evenodd" d="M15.3841 2.79274C15.7752 3.18386 16.5979 4.22233 16.0989 4.72134C15.6539 5.1664 14.9795 5.85421 14.9795 5.85421C14.9391 5.59797 14.3052 4.99107 14.3052 4.99107C14.3052 4.99107 14.3052 6.85223 14.3052 7.08151C14.2782 7.91768 13.968 8.16043 13.968 8.16043C13.968 8.16043 15.519 9.69792 15.519 11.667C15.519 12.6245 15.519 13.5012 15.519 13.69C15.519 14.0946 15.4111 14.4048 15.1414 14.715C15.0065 14.8633 13.5634 16.3064 13.3476 16.5087C12.9296 16.8863 12.498 16.9403 12.1608 16.9403C11.9315 16.9403 6.98193 16.9403 6.82009 16.9403C5.98392 16.9403 5.12077 16.2794 5.12077 15.6321C5.12077 15.4702 5.13426 13.6495 5.13426 13.6495C5.40399 13.9732 5.68721 14.3373 6.36154 14.3238C6.88753 14.3104 7.44048 13.9058 7.58883 13.7574C7.73719 13.6091 11.6214 9.54957 11.6214 9.54957C11.6214 9.54957 9.80065 7.86373 8.60033 7.06802C8.02041 6.6769 7.23818 7.17591 7.13029 7.6884C6.76615 9.3068 7.13029 11.7209 7.13029 11.7209C7.13029 11.7209 5.94346 10.5341 5.66024 10.2509C5.06682 9.65746 5.0938 8.30879 5.7951 7.60749C5.903 7.49959 6.98193 6.27231 8.35757 6.27231C8.57336 6.27231 10.2457 6.27231 10.4885 6.27231C11.9181 6.27231 13.4825 7.70189 13.4825 7.70189C13.4825 7.70189 13.7118 7.44564 13.7118 7.20288C13.7118 6.4746 13.6848 4.49207 13.6848 4.49207C12.6059 3.41313 12.4575 2.30722 12.9835 1.79473C13.9411 0.837176 14.2917 0.5 14.2917 0.5C14.2917 0.5 14.2647 1.67335 15.3841 2.79274ZM8.69474 13.5146C8.16876 14.0676 8.07435 14.2025 7.58883 14.4992C7.62929 14.4992 13.4151 14.4992 13.6039 14.4992C15.2358 14.4992 14.9121 13.4877 14.6154 12.9752C14.022 11.9232 12.1204 9.98114 12.1204 9.98114C12.1204 9.98114 8.80263 13.3933 8.69474 13.5146Z" fill="#E03A3E"/>
<path fill-rule="evenodd" clip-rule="evenodd" d="M1.8433 18.977H0.858768C0.858768 18.977 1.92422 19.5569 1.92422 21.054C1.92422 21.4451 1.92422 25.5181 1.92422 25.8552C1.92422 28.9706 4.50017 31.8568 7.62908 31.8568C8.15506 31.8568 9.89484 31.8568 10.2455 31.8568C11.81 31.8568 12.3629 31.4792 13.307 30.6295C13.6576 30.3193 14.1027 29.8068 14.278 29.6315C14.831 29.0246 15.4109 28.5256 15.4109 26.9207C15.4109 26.5296 15.4109 25.572 15.4109 25.3562C15.4109 23.9941 14.6287 23.4411 14.251 23.05C14.0083 22.8072 13.3339 22.1734 13.3339 22.1734V25.3832C13.3339 25.3832 13.9948 26.0845 14.278 26.3138C15.6402 27.3792 14.5612 29.2404 13.2935 29.2404C13.0372 29.2404 7.9123 29.2404 7.56165 29.2539C5.44424 29.3078 2.59855 27.4197 2.59855 24.2503C2.59855 23.8187 2.59855 21.9171 2.59855 21.6474C2.57158 18.977 1.8433 18.977 1.8433 18.977Z" fill="#E03A3E"/>
<path fill-rule="evenodd" clip-rule="evenodd" d="M8.12825 24.8165C8.12825 25.3695 6.37498 26.8261 6.26709 26.934C6.14571 26.3405 5.70064 25.6932 4.39244 24.385L6.30755 22.4699C7.60227 23.7376 8.12825 24.0208 8.12825 24.8165Z" fill="#E03A3E"/>
</svg>
